<?xml version="1.0" standalone="no"?>
<!DOCTYPE svg PUBLIC "-//W3C//DTD SVG 20010904//EN"
 "http://www.w3.org/TR/2001/REC-SVG-20010904/DTD/svg10.dtd">
<svg version="1.0" xmlns="http://www.w3.org/2000/svg"
 width="500.000000pt" height="500.000000pt" viewBox="0 0 500.000000 500.000000"
 preserveAspectRatio="xMidYMid meet">
<metadata>
Created by potrace 1.14, written by Peter Selinger 2001-2017
</metadata>
<g transform="translate(0.000000,500.000000) scale(0.100000,-0.100000)"
fill="#000000" stroke="none">
<path d="M3446 3920 c-240 -38 -469 -160 -642 -342 -108 -115 -254 -320 -334
-471 -14 -26 -28 -47 -32 -47 -4 0 -19 23 -34 51 -94 186 -233 378 -370 509
-141 136 -273 216 -441 266 -76 23 -111 27 -258 31 -147 4 -184 2 -275 -17
-241 -49 -442 -172 -595 -362 -220 -275 -318 -567 -317 -953 0 -289 39 -470
147 -690 76 -155 133 -232 258 -351 147 -140 313 -227 517 -271 132 -28 395
-25 515 6 347 90 609 316 855 737 l62 106 48 -90 c170 -321 406 -571 653 -688
40 -19 117 -46 172 -61 90 -24 118 -26 280 -27 211 -1 297 16 454 90 120 56
201 115 288 207 169 182 294 428 355 704 30 135 33 521 5 653 -77 359 -283
693 -528 856 -87 57 -226 116 -329 139 -88 19 -366 28 -454 15z m-1991 -561
c151 -44 290 -146 455 -336 206 -235 287 -358 276 -418 -17 -89 -202 -390
-342 -556 -236 -279 -522 -355 -798 -212 -97 51 -218 173 -269 271 -102 195
-126 521 -56 775 55 198 183 367 339 447 48 24 108 41 190 54 43 6 132 -5 205
-25z m2310 -5 c33 -8 87 -27 120 -43 259 -121 412 -456 375 -822 -34 -341
-209 -601 -458 -680 -95 -30 -248 -36 -332 -14 -131 34 -260 120 -366 245 -79
93 -230 320 -277 418 -60 124 -60 156 0 273 93 182 265 407 382 499 168 134
348 174 556 124z"/>
</g>
</svg>
